<svg xmlns="http://www.w3.org/2000/svg" xmlns:xlink="http://www.w3.org/1999/xlink" width="400" zoomAndPan="magnify" viewBox="0 0 300 299.999988" height="400" preserveAspectRatio="xMidYMid meet" version="1.0"><path fill="#efbfbd" d="M 75 0 C 69.085938 0 64.285156 4.800781 64.285156 10.714844 L 64.285156 21.429688 L 42.855469 21.429688 C 19.308594 21.429688 0 40.738281 0 64.285156 L 0 257.144531 C 0 280.691406 19.308594 300 42.855469 300 L 257.144531 300 C 280.691406 300 300 280.691406 300 257.144531 L 300 64.285156 C 300 40.738281 280.691406 21.429688 257.144531 21.429688 L 235.714844 21.429688 L 235.714844 10.714844 C 235.714844 4.800781 230.914062 0 225 0 C 219.085938 0 214.285156 4.800781 214.285156 10.714844 L 214.285156 21.429688 L 160.714844 21.429688 L 160.714844 10.714844 C 160.714844 4.800781 155.914062 0 150 0 C 144.085938 0 139.285156 4.800781 139.285156 10.714844 L 139.285156 21.429688 L 85.714844 21.429688 L 85.714844 10.714844 C 85.714844 4.800781 80.914062 0 75 0 Z M 42.855469 42.855469 L 64.285156 42.855469 L 64.285156 53.570312 C 64.285156 59.488281 69.085938 64.285156 75 64.285156 C 80.914062 64.285156 85.714844 59.488281 85.714844 53.570312 L 85.714844 42.855469 L 139.285156 42.855469 L 139.285156 53.570312 C 139.285156 59.488281 144.085938 64.285156 150 64.285156 C 155.914062 64.285156 160.714844 59.488281 160.714844 53.570312 L 160.714844 42.855469 L 214.285156 42.855469 L 214.285156 53.570312 C 214.285156 59.488281 219.085938 64.285156 225 64.285156 C 230.914062 64.285156 235.714844 59.488281 235.714844 53.570312 L 235.714844 42.855469 L 257.144531 42.855469 C 269.195312 42.855469 278.570312 52.230469 278.570312 64.285156 L 278.570312 85.714844 L 21.429688 85.714844 L 21.429688 64.285156 C 21.429688 52.230469 30.804688 42.855469 42.855469 42.855469 Z M 21.429688 107.144531 L 278.570312 107.144531 L 278.570312 257.144531 C 278.570312 269.195312 269.195312 278.570312 257.144531 278.570312 L 42.855469 278.570312 C 30.804688 278.570312 21.429688 269.195312 21.429688 257.144531 Z M 21.429688 107.144531 " fill-opacity="1" fill-rule="nonzero"/><path fill="#efbfbd" d="M 58.984375 139.339844 L 80.355469 139.339844 C 83.316406 139.339844 85.714844 141.683594 85.714844 144.699219 L 85.714844 166.070312 C 85.714844 169.027344 83.316406 171.429688 80.355469 171.429688 L 58.984375 171.429688 C 55.972656 171.429688 53.628906 169.027344 53.628906 166.070312 L 53.628906 144.699219 C 53.628906 141.683594 55.972656 139.339844 58.984375 139.339844 Z M 58.984375 139.339844 " fill-opacity="1" fill-rule="nonzero"/><path fill="#efbfbd" d="M 112.5 139.339844 L 133.871094 139.339844 C 136.886719 139.339844 139.230469 141.683594 139.230469 144.699219 L 139.230469 166.070312 C 139.230469 169.027344 136.886719 171.429688 133.871094 171.429688 L 112.5 171.429688 C 109.542969 171.429688 107.144531 169.027344 107.144531 166.070312 L 107.144531 144.699219 C 107.144531 141.683594 109.542969 139.339844 112.5 139.339844 Z M 112.5 139.339844 " fill-opacity="1" fill-rule="nonzero"/><path fill="#efbfbd" d="M 166.128906 139.339844 L 187.5 139.339844 C 190.457031 139.339844 192.855469 141.683594 192.855469 144.699219 L 192.855469 166.070312 C 192.855469 169.027344 190.457031 171.429688 187.5 171.429688 L 166.128906 171.429688 C 163.113281 171.429688 160.769531 169.027344 160.769531 166.070312 L 160.769531 144.699219 C 160.769531 141.683594 163.113281 139.339844 166.128906 139.339844 Z M 166.128906 139.339844 " fill-opacity="1" fill-rule="nonzero"/><path fill="#efbfbd" d="M 219.644531 139.339844 L 241.015625 139.339844 C 244.027344 139.339844 246.371094 141.683594 246.371094 144.699219 L 246.371094 166.070312 C 246.371094 169.027344 244.027344 171.429688 241.015625 171.429688 L 219.644531 171.429688 C 216.683594 171.429688 214.285156 169.027344 214.285156 166.070312 L 214.285156 144.699219 C 214.285156 141.683594 216.683594 139.339844 219.644531 139.339844 Z M 219.644531 139.339844 " fill-opacity="1" fill-rule="nonzero"/><path fill="#efbfbd" d="M 58.984375 203.570312 L 80.355469 203.570312 C 83.316406 203.570312 85.714844 205.972656 85.714844 208.929688 L 85.714844 230.300781 C 85.714844 233.316406 83.316406 235.660156 80.355469 235.660156 L 58.984375 235.660156 C 55.972656 235.660156 53.628906 233.316406 53.628906 230.300781 L 53.628906 208.929688 C 53.628906 205.972656 55.972656 203.570312 58.984375 203.570312 Z M 58.984375 203.570312 " fill-opacity="1" fill-rule="nonzero"/><path fill="#efbfbd" d="M 112.5 203.570312 L 133.871094 203.570312 C 136.886719 203.570312 139.230469 205.972656 139.230469 208.929688 L 139.230469 230.300781 C 139.230469 233.316406 136.886719 235.660156 133.871094 235.660156 L 112.5 235.660156 C 109.542969 235.660156 107.144531 233.316406 107.144531 230.300781 L 107.144531 208.929688 C 107.144531 205.972656 109.542969 203.570312 112.5 203.570312 Z M 112.5 203.570312 " fill-opacity="1" fill-rule="nonzero"/><path fill="#efbfbd" d="M 166.128906 203.570312 L 187.5 203.570312 C 190.457031 203.570312 192.855469 205.972656 192.855469 208.929688 L 192.855469 230.300781 C 192.855469 233.316406 190.457031 235.660156 187.5 235.660156 L 166.128906 235.660156 C 163.113281 235.660156 160.769531 233.316406 160.769531 230.300781 L 160.769531 208.929688 C 160.769531 205.972656 163.113281 203.570312 166.128906 203.570312 Z M 166.128906 203.570312 " fill-opacity="1" fill-rule="nonzero"/><path fill="#efbfbd" d="M 219.644531 203.570312 L 241.015625 203.570312 C 244.027344 203.570312 246.371094 205.972656 246.371094 208.929688 L 246.371094 230.300781 C 246.371094 233.316406 244.027344 235.660156 241.015625 235.660156 L 219.644531 235.660156 C 216.683594 235.660156 214.285156 233.316406 214.285156 230.300781 L 214.285156 208.929688 C 214.285156 205.972656 216.683594 203.570312 219.644531 203.570312 Z M 219.644531 203.570312 " fill-opacity="1" fill-rule="nonzero"/></svg>