<svg xmlns="http://www.w3.org/2000/svg" xmlns:xlink="http://www.w3.org/1999/xlink" width="400" zoomAndPan="magnify" viewBox="0 0 300 299.999988" height="400" preserveAspectRatio="xMidYMid meet" version="1.0"><defs><clipPath id="aff7bffafb"><path d="M 39.273438 0 L 260.523438 0 L 260.523438 300 L 39.273438 300 Z M 39.273438 0 " clip-rule="nonzero"/></clipPath></defs><g clip-path="url(#aff7bffafb)"><path fill="#efbfbd" d="M 249.628906 121.621094 L 234.328125 121.621094 L 234.328125 84.421875 C 234.386719 37.859375 196.527344 0 149.96875 0 C 103.40625 0 65.546875 37.859375 65.546875 84.421875 L 65.546875 121.621094 L 50.308594 121.621094 C 44.246094 121.621094 39.328125 126.539062 39.328125 132.601562 L 39.328125 289.078125 C 39.328125 295.078125 44.246094 300 50.308594 300 L 249.6875 300 C 255.746094 300 260.667969 295.078125 260.667969 289.019531 L 260.667969 132.601562 C 260.605469 126.539062 255.6875 121.621094 249.628906 121.621094 Z M 87.507812 84.421875 C 87.507812 49.980469 115.527344 21.960938 149.96875 21.960938 C 184.40625 21.960938 212.425781 49.980469 212.425781 84.421875 L 212.425781 121.621094 L 87.507812 121.621094 Z M 160.949219 218.699219 L 160.949219 247.558594 C 160.949219 253.621094 156.027344 258.539062 149.96875 258.539062 C 143.90625 258.539062 138.988281 253.621094 138.988281 247.558594 L 138.988281 218.699219 C 131.425781 214.738281 126.265625 206.820312 126.265625 197.761719 C 126.265625 184.679688 136.886719 174.121094 149.90625 174.121094 C 162.988281 174.121094 173.546875 184.738281 173.546875 197.761719 C 173.667969 206.820312 168.507812 214.738281 160.949219 218.699219 Z M 160.949219 218.699219 " fill-opacity="1" fill-rule="nonzero"/></g></svg>