<svg xmlns="http://www.w3.org/2000/svg" xmlns:xlink="http://www.w3.org/1999/xlink" width="400" zoomAndPan="magnify" viewBox="0 0 300 299.999988" height="400" preserveAspectRatio="xMidYMid meet" version="1.0"><defs><clipPath id="8d7aafb841"><path d="M 33.71875 0 L 266.21875 0 L 266.21875 300 L 33.71875 300 Z M 33.71875 0 " clip-rule="nonzero"/></clipPath></defs><g clip-path="url(#8d7aafb841)"><path fill="#efbfbd" d="M 266.277344 277.335938 C 266.277344 197.285156 214.175781 132.429688 149.996094 132.429688 C 85.820312 132.429688 33.71875 197.285156 33.71875 277.335938 C 33.71875 289.820312 85.820312 299.996094 149.996094 299.996094 C 214.175781 299.996094 266.277344 289.820312 266.277344 277.335938 Z M 149.996094 0.00390625 C 185.003906 0.00390625 213.359375 28.359375 213.359375 63.367188 C 213.359375 98.375 185.003906 126.730469 149.996094 126.730469 C 114.992188 126.730469 86.632812 98.375 86.632812 63.367188 C 86.632812 28.359375 114.992188 0.00390625 149.996094 0.00390625 Z M 149.996094 0.00390625 " fill-opacity="1" fill-rule="evenodd"/></g></svg>